<svg width="48" height="48" viewBox="0 0 48 48" fill="none" xmlns="http://www.w3.org/2000/svg">
    <path d="M23.9995 0L3.21484 12V36L23.9995 48L44.7842 36V12L23.9995 0Z" fill="#82D2FF"/>
    <path d="M23.9995 24V0L3.21484 12L23.9995 24Z" fill="#08B7FC"/>
    <path d="M3.21484 12V36L23.9995 24L3.21484 12Z" fill="#006DFF"/>
    <path d="M44.7847 12L24 24L44.7847 36V12Z" fill="#08B7FC"/>
    <path d="M23.9995 24L3.21484 36L23.9995 48V24Z" fill="#0050C0"/>
    <path d="M24 48L44.7847 36L24 24V48Z" fill="#006DFF"/>
    <path d="M35.7297 30.7741V17.2294L23.9996 10.457L12.2695 17.2294V30.7741L23.9996 37.5465L35.7297 30.7741Z"
          fill="#82D2FF"/>
    <path d="M35.7301 30.7741V17.2294L24 10.457V37.5465L35.7301 30.7741Z" fill="#55CBFF"/>
</svg>
